<svg version="1.1" xmlns="http://www.w3.org/2000/svg" xmlns:xlink="http://www.w3.org/1999/xlink" width="26.18794" height="55.1284" viewBox="0,0,26.18794,55.1284"><g transform="translate(-228.13259,-154.02161)"><g data-paper-data="{&quot;isPaintingLayer&quot;:true}" fill="#000000" fill-rule="nonzero" stroke="none" stroke-width="0.5" stroke-linecap="butt" stroke-linejoin="miter" stroke-miterlimit="10" stroke-dasharray="" stroke-dashoffset="0" style="mix-blend-mode: normal"><path d="M231.53731,195.74883c-0.97609,-0.78087 -0.19522,-1.75695 -0.19522,-1.75695l1.08558,-1.35693c0.42248,-0.54321 0.84497,-1.08642 1.26745,-1.62962c0,0 0.76743,-0.98669 1.75412,-0.21926c0.98669,0.76743 0.21926,1.75412 0.21926,1.75412c-0.426,0.5477 -0.852,1.0954 -1.27801,1.6431l-1.09623,1.37034c0,0 -0.78087,0.97609 -1.75695,0.19522z"/><path d="M250.67137,192.61497c-1.02404,0.71683 -1.74087,-0.30721 -1.74087,-0.30721l-0.77733,-1.17286c-0.21212,-0.54545 -0.42424,-1.09091 -0.63636,-1.63636c0,0 -0.45306,-1.16501 0.71195,-1.61806c1.16501,-0.45306 1.61806,0.71195 1.61806,0.71195c0.21212,0.54545 0.42424,1.09091 0.63636,1.63636l0.4954,0.64532c0,0 0.71683,1.02404 -0.30721,1.74087z"/><path d="M228.31962,170.25083c0.61283,-1.08947 1.7023,-0.47664 1.7023,-0.47664l1.45455,0.81818c0,0 1.08947,0.61283 0.47664,1.7023c-0.61283,1.08947 -1.7023,0.47664 -1.7023,0.47664l-1.45455,-0.81818c0,0 -1.08947,-0.61283 -0.47664,-1.7023z"/><path d="M253.89011,167.03312c0.92144,0.84466 0.07679,1.7661 0.07679,1.7661l-0.97214,1.05947c-0.60564,0.74898 -1.14222,1.56717 -1.54384,2.44266c0,0 -0.52861,1.13273 -1.66134,0.60412c-1.13273,-0.52861 -0.60412,-1.66134 -0.60412,-1.66134c0.50855,-1.07469 1.17189,-2.08037 1.9107,-3.01189l1.02786,-1.12234c0,0 0.84466,-0.92144 1.7661,-0.07679z"/><path d="M245.59338,154.25994c1.04006,0.69338 0.34669,1.73344 0.34669,1.73344l-0.62714,0.80881c0.07696,0.52448 0.15392,1.04896 0.23087,1.57344c0,0 0.12438,1.2438 -1.11942,1.36818c-1.2438,0.12438 -1.36818,-1.11942 -1.36818,-1.11942c-0.05638,-0.80885 -0.11275,-1.61771 -0.16913,-2.42656l0.97286,-1.59119c0,0 0.69338,-1.04006 1.73344,-0.34669z"/><path d="M246.5,209.15001c-1.25,0 -1.25,-1.25 -1.25,-1.25c0,-0.46667 0,-2.13333 0,-2.6c0,0 0,-1.25 1.25,-1.25c1.25,0 1.25,1.25 1.25,1.25c0,0.46667 0,0.93333 0,1.4v1.2c0,0 0,1.25 -1.25,1.25z"/><path d="M241.11667,189.63334c0,-0.69036 0.55964,-1.25 1.25,-1.25c0.69036,0 1.25,0.55964 1.25,1.25c0,0.69036 -0.55964,1.25 -1.25,1.25c-0.69036,0 -1.25,-0.55964 -1.25,-1.25z"/><path d="M229.85,182.43334c0,-0.69036 0.55964,-1.25 1.25,-1.25c0.69036,0 1.25,0.55964 1.25,1.25c0,0.69036 -0.55964,1.25 -1.25,1.25c-0.69036,0 -1.25,-0.55964 -1.25,-1.25z"/><path d="M249.18334,181.1c0,-0.69036 0.55964,-1.25 1.25,-1.25c0.69036,0 1.25,0.55964 1.25,1.25c0,0.69036 -0.55964,1.25 -1.25,1.25c-0.69036,0 -1.25,-0.55964 -1.25,-1.25z"/><path d="M237.38333,175.03333c0,-0.69036 0.55964,-1.25 1.25,-1.25c0.69036,0 1.25,0.55964 1.25,1.25c0,0.69036 -0.55964,1.25 -1.25,1.25c-0.69036,0 -1.25,-0.55964 -1.25,-1.25z"/></g></g></svg>