<svg version="1.1" xmlns="http://www.w3.org/2000/svg" xmlns:xlink="http://www.w3.org/1999/xlink" width="720" height="540" viewBox="0,0,720,540"><defs><clipPath id="clip-1"><rect x="-240" y="-180" transform="scale(0.5,0.5)" width="1440" height="1080" fill="none" fill-rule="nonzero" stroke-width="0.5" stroke-linecap="butt"/></clipPath></defs><g transform="translate(120,90)"><g clip-path="url(#clip-1)" data-paper-data="{&quot;isPaintingLayer&quot;:true}" stroke="none" stroke-linejoin="miter" stroke-miterlimit="10" stroke-dasharray="" stroke-dashoffset="0" style="mix-blend-mode: normal"><path d="M-240,-180h960v720h-960z" fill-opacity="0" fill="#000000" fill-rule="evenodd" stroke-width="1" stroke-linecap="square"/><g stroke-width="1" stroke-linecap="square"><path d="M-120,172.17584h751.30707v75.93701h-751.30707z" fill-opacity="0" fill="#000000" fill-rule="evenodd"/><path d="M-110.53125,225.97586l0.14063,-0.75l3.875,-1.85937l4.46875,-25.57812l-3.21875,-1.85937l0.14063,-0.75h21.46875l-1.45312,8.03125h-0.75l-1.71875,-5.6875h-10.40625l-2,11.375h7.5l2.90625,-3.96875h0.73438l-1.8125,10.21875h-0.75l-1.4375,-3.92187h-7.5625l-2.20312,12.42188h12.46875l3.73438,-6.15625h0.73438l-1.48437,8.48438zM-76.14944,226.44461c-1.23959,0 -2.24479,-0.53646 -3.01562,-1.60937c-0.76041,-1.07291 -1.14062,-2.68229 -1.14062,-4.82812c0,-1.92709 0.30209,-3.80729 0.90625,-5.64062c0.61459,-1.84375 1.45834,-3.51041 2.53125,-5c1.07291,-1.48959 2.30729,-2.67187 3.70313,-3.54687c1.40625,-0.875 2.90104,-1.3125 4.48438,-1.3125c0.78125,0 1.52604,0.09375 2.23438,0.28125c0.71875,0.1875 1.35938,0.4375 1.92188,0.75l1.625,-1.03125h1.17188l-2.84375,15.92188c-0.15625,0.92709 -0.18229,1.59375 -0.07812,2c0.11459,0.40625 0.36979,0.60938 0.76563,0.60938c0.53125,0 1.10938,-0.28646 1.73438,-0.85937c0.625,-0.58334 1.21354,-1.46354 1.76563,-2.64062l0.60938,0.28125c-0.89583,2.33334 -1.86458,4.02084 -2.90625,5.0625c-1.04167,1.04166 -2.10937,1.5625 -3.20312,1.5625c-1.08334,0 -1.82812,-0.41666 -2.23437,-1.25c-0.40625,-0.84375 -0.48437,-1.96875 -0.23437,-3.375l0.23438,-1.20312h-0.1875c-1.1875,1.80209 -2.4375,3.22396 -3.75,4.26563c-1.30209,1.04166 -2.66666,1.5625 -4.09375,1.5625zM-76.75882,218.17899c0,1.75 0.19271,3.05209 0.57813,3.90625c0.39584,0.85416 1.13541,1.28125 2.21875,1.28125c0.75,0 1.49479,-0.25 2.23438,-0.75c0.75,-0.5 1.46875,-1.13541 2.15625,-1.90625c0.6875,-0.78125 1.29688,-1.57812 1.82813,-2.39062l1.71875,-9.60937c-0.59375,-0.77084 -1.19271,-1.35937 -1.79687,-1.76562c-0.60416,-0.40625 -1.34375,-0.60937 -2.21875,-0.60937c-1.33334,0 -2.50521,0.57813 -3.51562,1.73438c-1.01041,1.14584 -1.79687,2.61979 -2.35937,4.42188c-0.5625,1.80209 -0.84375,3.69791 -0.84375,5.6875zM-52.72915,226.44461c-1.02083,0 -1.79687,-0.32812 -2.32812,-0.98437c-0.53125,-0.65625 -0.79687,-1.57291 -0.79687,-2.75c0,-0.25 0.01563,-0.53125 0.04688,-0.84375c0.03125,-0.3125 0.07813,-0.61979 0.14063,-0.92187l2.46875,-13.90625h-3.45312v-0.28125l3.96875,-1.78125l4.01563,-5.125h0.28125l-0.89062,5.125h5.82813v2.0625h-6.20312l-2.09375,11.84375c-0.0625,0.40625 -0.10937,0.77604 -0.14062,1.10938c-0.03125,0.32291 -0.04687,0.60938 -0.04687,0.85938c0,0.73959 0.125,1.26563 0.375,1.57813c0.25,0.3125 0.57813,0.46875 0.98438,0.46875c0.70833,0 1.47396,-0.40104 2.29688,-1.20312c0.82292,-0.8125 1.57813,-1.98437 2.26563,-3.51562l0.60938,0.28125c-1.03125,2.95834 -2.17708,5.03125 -3.4375,6.21875c-1.25,1.17709 -2.54687,1.76563 -3.89062,1.76563zM-26.50622,226.44461c-1.58333,0 -2.875,-0.22396 -3.875,-0.67187c-0.98959,-0.45834 -1.70312,-1.02604 -2.14062,-1.70312c-0.1875,-0.28125 -0.3125,-0.51562 -0.375,-0.70312c-0.0625,-0.1875 -0.09375,-0.39062 -0.09375,-0.60937c0,-0.1875 0.03125,-0.38021 0.09375,-0.57812c0.0625,-0.20834 0.21875,-0.375 0.46875,-0.5l1.01563,-0.5625h0.32813l0.79688,1.35938c0.46875,0.78125 1.08854,1.36459 1.85938,1.75c0.78125,0.38541 1.5625,0.57813 2.34375,0.57813c1.17708,0 2.14584,-0.30729 2.90625,-0.92187c0.77084,-0.625 1.15625,-1.53125 1.15625,-2.71875c0,-1.20834 -0.40104,-2.13541 -1.20312,-2.78125c-0.79166,-0.65625 -1.68229,-1.28125 -2.67187,-1.875c-1.1875,-0.71875 -2.07812,-1.36979 -2.67187,-1.95312c-0.58334,-0.59375 -0.98437,-1.20312 -1.20312,-1.82812c-0.21875,-0.625 -0.32812,-1.36979 -0.32812,-2.23437c0,-0.90625 0.33854,-1.81771 1.01563,-2.73437c0.6875,-0.91666 1.58854,-1.6875 2.70313,-2.3125c1.125,-0.625 2.3125,-0.9375 3.5625,-0.9375c1.36458,0 2.4375,0.21354 3.21875,0.64063c0.78125,0.41666 1.38541,0.95313 1.8125,1.60938c0.28125,0.4375 0.42188,0.83854 0.42188,1.20313c0,0.21875 -0.05729,0.4375 -0.17187,0.65625c-0.10416,0.21875 -0.26562,0.39063 -0.48437,0.51563l-0.875,0.46875h-0.32812l-1.03125,-1.45312c-0.4375,-0.61459 -0.92709,-1.08334 -1.46875,-1.40625c-0.54166,-0.33334 -1.21875,-0.5 -2.03125,-0.5c-0.89584,0 -1.66666,0.27084 -2.3125,0.8125c-0.63541,0.54166 -0.95312,1.25 -0.95312,2.125c0,1 0.30209,1.82813 0.90625,2.48438c0.61459,0.64584 1.32291,1.20313 2.125,1.67188c1.125,0.65625 2.05209,1.28125 2.78125,1.875c0.72916,0.58334 1.28125,1.25 1.65625,2c0.375,0.73959 0.5625,1.6875 0.5625,2.84375c0,1.08334 -0.32812,2.11459 -0.98437,3.09375c-0.65625,0.97916 -1.55208,1.77604 -2.6875,2.39063c-1.13542,0.60416 -2.41667,0.90625 -3.84375,0.90625zM-14.14807,225.97586l3.21875,-18.15625l-3.625,-1.625v-0.28125l6.625,-1.40625h0.125v4.90625h0.1875c1.09375,-1.20834 2.02604,-2.17187 2.79688,-2.89062c0.78125,-0.71875 1.54688,-1.23437 2.29688,-1.54687c0.75,-0.3125 1.61979,-0.46875 2.60938,-0.46875c1.15625,0 2.10417,0.4375 2.84375,1.3125c0.75,0.875 1.15625,2.07291 1.21875,3.59375h0.23438c1.08334,-1.20834 2.01563,-2.17187 2.79688,-2.89062c0.78125,-0.71875 1.53646,-1.23437 2.26563,-1.54687c0.72917,-0.3125 1.60938,-0.46875 2.64063,-0.46875c1.39584,0 2.47917,0.625 3.25,1.875c0.78125,1.23959 0.98438,2.91666 0.60938,5.03125l-1.625,9.01563c-0.15625,0.92709 -0.1875,1.59375 -0.09375,2c0.09375,0.40625 0.35938,0.60938 0.79688,0.60938c0.52083,0 1.09375,-0.28646 1.71875,-0.85937c0.625,-0.58334 1.21875,-1.46354 1.78125,-2.64062l0.59375,0.28125c-0.89584,2.33334 -1.86458,4.02084 -2.90625,5.0625c-1.04166,1.04166 -2.10938,1.5625 -3.20313,1.5625c-1.08333,0 -1.82812,-0.41666 -2.23437,-1.25c-0.40625,-0.84375 -0.48437,-1.96875 -0.23437,-3.375l1.8125,-10.26562c0.1875,-1.08334 0.08854,-2.05209 -0.29687,-2.90625c-0.38542,-0.85416 -1.20312,-1.28125 -2.45312,-1.28125c-0.67708,0 -1.35416,0.22396 -2.03125,0.67188c-0.66666,0.44791 -1.3125,0.99479 -1.9375,1.64063c-0.61458,0.63541 -1.17187,1.22916 -1.67187,1.78125l-2.60937,14.51563h-3.54687l2.5625,-14.42187c0.1875,-1.08334 0.08334,-2.05209 -0.3125,-2.90625c-0.38541,-0.85416 -1.19791,-1.28125 -2.4375,-1.28125c-0.6875,0 -1.375,0.23438 -2.0625,0.70313c-0.67708,0.45834 -1.33854,1.01041 -1.98437,1.65625c-0.63542,0.63541 -1.19791,1.24479 -1.6875,1.82813l-2.48437,14.42188zM25.79419,226.44461c-1.23958,0 -2.24479,-0.53646 -3.01562,-1.60937c-0.76041,-1.07291 -1.14062,-2.68229 -1.14062,-4.82812c0,-1.92709 0.30209,-3.80729 0.90625,-5.64062c0.61459,-1.84375 1.45833,-3.51041 2.53125,-5c1.07292,-1.48959 2.30729,-2.67187 3.70313,-3.54687c1.40625,-0.875 2.90104,-1.3125 4.48438,-1.3125c0.78125,0 1.52604,0.09375 2.23438,0.28125c0.71875,0.1875 1.35938,0.4375 1.92188,0.75l1.625,-1.03125h1.17188l-2.84375,15.92188c-0.15625,0.92709 -0.18229,1.59375 -0.07812,2c0.11458,0.40625 0.36979,0.60938 0.76563,0.60938c0.53125,0 1.10938,-0.28646 1.73438,-0.85937c0.625,-0.58334 1.21354,-1.46354 1.76563,-2.64062l0.60938,0.28125c-0.89583,2.33334 -1.86458,4.02084 -2.90625,5.0625c-1.04167,1.04166 -2.10937,1.5625 -3.20312,1.5625c-1.08333,0 -1.82812,-0.41666 -2.23437,-1.25c-0.40625,-0.84375 -0.48437,-1.96875 -0.23437,-3.375l0.23438,-1.20312h-0.1875c-1.1875,1.80209 -2.4375,3.22396 -3.75,4.26563c-1.30208,1.04166 -2.66667,1.5625 -4.09375,1.5625zM25.18481,218.17899c0,1.75 0.19271,3.05209 0.57813,3.90625c0.39584,0.85416 1.13542,1.28125 2.21875,1.28125c0.75,0 1.49479,-0.25 2.23438,-0.75c0.75,-0.5 1.46875,-1.13541 2.15625,-1.90625c0.6875,-0.78125 1.29688,-1.57812 1.82813,-2.39062l1.71875,-9.60937c-0.59375,-0.77084 -1.19271,-1.35937 -1.79687,-1.76562c-0.60417,-0.40625 -1.34375,-0.60937 -2.21875,-0.60937c-1.33333,0 -2.50521,0.57813 -3.51562,1.73438c-1.01042,1.14584 -1.79687,2.61979 -2.35937,4.42188c-0.5625,1.80209 -0.84375,3.69791 -0.84375,5.6875zM47.82385,226.44461c-1.09375,0 -1.84375,-0.41666 -2.25,-1.25c-0.40625,-0.84375 -0.48437,-1.96875 -0.23437,-3.375l4.8125,-27.5625l-4.0625,-1.59375v-0.28125l8.07813,-1.39062h0.14063l-5.1875,29.4375c-0.15625,0.92709 -0.1875,1.59375 -0.09375,2c0.09375,0.40625 0.35938,0.60938 0.79688,0.60938c0.53125,0 1.10417,-0.28646 1.71875,-0.85937c0.625,-0.58334 1.21875,-1.46354 1.78125,-2.64062l0.60938,0.28125c-0.90625,2.33334 -1.88021,4.02084 -2.92187,5.0625c-1.04167,1.04166 -2.10417,1.5625 -3.1875,1.5625zM59.86114,226.44461c-1.09375,0 -1.84375,-0.41666 -2.25,-1.25c-0.40625,-0.84375 -0.48437,-1.96875 -0.23437,-3.375l4.8125,-27.5625l-4.0625,-1.59375v-0.28125l8.07813,-1.39062h0.14063l-5.1875,29.4375c-0.15625,0.92709 -0.1875,1.59375 -0.09375,2c0.09375,0.40625 0.35938,0.60938 0.79688,0.60938c0.53125,0 1.10417,-0.28646 1.71875,-0.85937c0.625,-0.58334 1.21875,-1.46354 1.78125,-2.64062l0.60938,0.28125c-0.90625,2.33334 -1.88021,4.02084 -2.92188,5.0625c-1.04167,1.04166 -2.10417,1.5625 -3.1875,1.5625zM76.46094,226.44461c-2.39584,0 -4.15625,-0.66146 -5.28125,-1.98437c-1.11459,-1.32291 -1.67187,-3.11979 -1.67187,-5.39062c0,-1.83334 0.30209,-3.61459 0.90625,-5.34375c0.61459,-1.72916 1.45834,-3.28125 2.53125,-4.65625c1.07291,-1.38541 2.31771,-2.48959 3.73438,-3.3125c1.41666,-0.83334 2.94791,-1.25 4.59375,-1.25c1.55209,0 2.72396,0.35938 3.51563,1.07813c0.79166,0.71875 1.1875,1.55729 1.1875,2.51563c0,1.0625 -0.375,2.03646 -1.125,2.92188c-0.73959,0.88541 -2.03646,1.69271 -3.89062,2.42188c-1.84375,0.72916 -4.44791,1.375 -7.8125,1.9375c-0.0625,0.625 -0.09375,1.28125 -0.09375,1.96875c0,1.89584 0.40625,3.40625 1.21875,4.53125c0.8125,1.11459 2.08854,1.67188 3.82813,1.67188c1.02084,0 2.02604,-0.28125 3.01563,-0.84375c1,-0.5625 2.03125,-1.47916 3.09375,-2.75h0.09375l0.46875,0.375c-1.0625,1.83334 -2.33334,3.3125 -3.8125,4.4375c-1.46875,1.11459 -2.96875,1.67188 -4.5,1.67188zM80.00781,206.14774c-1.67709,0 -3.09896,0.69271 -4.26562,2.07813c-1.16666,1.38541 -1.95312,3.21354 -2.35937,5.48438c2.33334,-0.40625 4.15104,-0.84375 5.45313,-1.3125c1.3125,-0.46875 2.22916,-1.02084 2.75,-1.65625c0.53125,-0.63541 0.79688,-1.4375 0.79688,-2.40625c0,-0.61459 -0.20312,-1.13021 -0.60937,-1.54687c-0.39584,-0.42709 -0.98437,-0.64062 -1.76562,-0.64062zM89.84833,225.97586l3.21875,-18.15625l-3.625,-1.625v-0.28125l6.57813,-1.40625h0.14063v5.75h0.17188c1,-1.83334 1.84896,-3.14584 2.54688,-3.9375c0.69791,-0.80209 1.31771,-1.30209 1.85938,-1.5c0.55209,-0.20834 1.04688,-0.3125 1.48438,-0.3125c0.55209,0 1.0625,0.18229 1.53125,0.54688c0.46875,0.35416 0.70313,0.76563 0.70313,1.23438c0,0.15625 -0.04687,0.32813 -0.14062,0.51563l-1.17187,2.375h-0.28125l-0.5,-0.375c-0.25,-0.1875 -0.52604,-0.31771 -0.82812,-0.39062c-0.29166,-0.08334 -0.57812,-0.125 -0.85937,-0.125c-0.5625,0 -1.06771,0.11979 -1.51562,0.35938c-0.44791,0.22916 -0.94791,0.70834 -1.5,1.4375c-0.54166,0.72916 -1.22916,1.82813 -2.0625,3.29688l-2.20312,12.59375zM121.53323,226.44461c-1.23959,0 -2.24479,-0.53646 -3.01562,-1.60937c-0.76041,-1.07291 -1.14062,-2.68229 -1.14062,-4.82812c0,-1.92709 0.30209,-3.80729 0.90625,-5.64062c0.61459,-1.84375 1.45834,-3.51041 2.53125,-5c1.07291,-1.48959 2.30729,-2.67187 3.70313,-3.54687c1.40625,-0.875 2.90104,-1.3125 4.48438,-1.3125c1.11459,0 2.1875,0.20313 3.21875,0.60938l1.90625,-10.85937l-4.0625,-1.59375v-0.28125l8.07813,-1.39062h0.14063l-5.17187,29.4375c-0.15625,0.92709 -0.1875,1.59375 -0.09375,2c0.09375,0.40625 0.35416,0.60938 0.78125,0.60938c0.53125,0 1.10938,-0.28646 1.73438,-0.85937c0.625,-0.58334 1.21354,-1.46354 1.76563,-2.64062l0.60938,0.28125c-0.89584,2.33334 -1.86979,4.02084 -2.92187,5.0625c-1.04166,1.04166 -2.10416,1.5625 -3.1875,1.5625c-1.09375,0 -1.84375,-0.41666 -2.25,-1.25c-0.39584,-0.84375 -0.46875,-1.96875 -0.21875,-3.375l0.23438,-1.20312h-0.1875c-2.61459,3.88541 -5.22916,5.82813 -7.84375,5.82813zM120.92386,218.17899c0,1.95834 0.21875,3.3125 0.65625,4.0625c0.4375,0.75 1.15104,1.125 2.14063,1.125c0.90625,0 1.91666,-0.45834 3.03125,-1.375c1.125,-0.91666 2.1875,-2.14062 3.1875,-3.67187l1.67188,-9.5625c-0.65625,-0.86459 -1.28646,-1.48437 -1.89062,-1.85937c-0.60416,-0.375 -1.29687,-0.5625 -2.07812,-0.5625c-1.23959,0 -2.36459,0.54688 -3.375,1.64063c-1.01041,1.08334 -1.82291,2.52084 -2.4375,4.3125c-0.60416,1.78125 -0.90625,3.74479 -0.90625,5.89063zM149.34241,226.44461c-2.70834,0 -4.70834,-0.83854 -6,-2.51562c-1.29166,-1.6875 -1.9375,-3.86459 -1.9375,-6.53125c0,-1.46875 0.26563,-2.95312 0.79688,-4.45312c0.53125,-1.51041 1.29166,-2.90104 2.28125,-4.17187c1,-1.28125 2.18229,-2.3125 3.54688,-3.09375c1.375,-0.78125 2.88541,-1.17187 4.53125,-1.17187c2.70834,0 4.70834,0.84375 6,2.53125c1.29166,1.67709 1.9375,3.85416 1.9375,6.53125c0,1.39584 -0.26041,2.84896 -0.78125,4.35938c-0.51041,1.51041 -1.25521,2.91146 -2.23437,4.20313c-0.97916,1.29166 -2.15625,2.33334 -3.53125,3.125c-1.36459,0.79166 -2.90104,1.1875 -4.60937,1.1875zM149.85803,224.66336c1.33334,0 2.49479,-0.52084 3.48438,-1.5625c1,-1.04166 1.76563,-2.42187 2.29688,-4.14062c0.53125,-1.72916 0.79688,-3.61979 0.79688,-5.67187c0,-2.30209 -0.30729,-4.05209 -0.92187,-5.25c-0.60416,-1.19791 -1.72916,-1.79687 -3.375,-1.79687c-1.30209,0 -2.45834,0.47396 -3.46875,1.42188c-1.01041,0.94791 -1.79687,2.26563 -2.35937,3.95313c-0.5625,1.67709 -0.84375,3.65104 -0.84375,5.92188c0,2.29166 0.3125,4.05209 0.9375,5.28125c0.625,1.22916 1.77604,1.84375 3.45313,1.84375zM168.46747,226.44461c-1.02084,0 -1.79687,-0.32812 -2.32812,-0.98437c-0.53125,-0.65625 -0.79687,-1.57291 -0.79687,-2.75c0,-0.25 0.01563,-0.53125 0.04688,-0.84375c0.03125,-0.3125 0.07813,-0.61979 0.14063,-0.92187l2.46875,-13.90625h-3.45312v-0.28125l3.96875,-1.78125l4.01563,-5.125h0.28125l-0.89062,5.125h5.82813v2.0625h-6.20312l-2.09375,11.84375c-0.0625,0.40625 -0.10937,0.77604 -0.14062,1.10938c-0.03125,0.32291 -0.04687,0.60938 -0.04687,0.85938c0,0.73959 0.125,1.26563 0.375,1.57813c0.25,0.3125 0.57813,0.46875 0.98438,0.46875c0.70834,0 1.47396,-0.40104 2.29688,-1.20312c0.82291,-0.8125 1.57813,-1.98437 2.26563,-3.51562l0.60938,0.28125c-1.03125,2.95834 -2.17709,5.03125 -3.4375,6.21875c-1.25,1.17709 -2.54687,1.76563 -3.89062,1.76563zM183.58624,226.44461c-1.58334,0 -2.875,-0.22396 -3.875,-0.67187c-0.98959,-0.45834 -1.70312,-1.02604 -2.14062,-1.70312c-0.1875,-0.28125 -0.3125,-0.51562 -0.375,-0.70312c-0.0625,-0.1875 -0.09375,-0.39062 -0.09375,-0.60937c0,-0.1875 0.03125,-0.38021 0.09375,-0.57812c0.0625,-0.20834 0.21875,-0.375 0.46875,-0.5l1.01563,-0.5625h0.32813l0.79688,1.35938c0.46875,0.78125 1.08854,1.36459 1.85938,1.75c0.78125,0.38541 1.5625,0.57813 2.34375,0.57813c1.17709,0 2.14584,-0.30729 2.90625,-0.92187c0.77084,-0.625 1.15625,-1.53125 1.15625,-2.71875c0,-1.20834 -0.40104,-2.13541 -1.20312,-2.78125c-0.79166,-0.65625 -1.68229,-1.28125 -2.67187,-1.875c-1.1875,-0.71875 -2.07812,-1.36979 -2.67187,-1.95312c-0.58334,-0.59375 -0.98437,-1.20312 -1.20312,-1.82812c-0.21875,-0.625 -0.32812,-1.36979 -0.32812,-2.23437c0,-0.90625 0.33854,-1.81771 1.01563,-2.73437c0.6875,-0.91666 1.58854,-1.6875 2.70313,-2.3125c1.125,-0.625 2.3125,-0.9375 3.5625,-0.9375c1.36459,0 2.4375,0.21354 3.21875,0.64063c0.78125,0.41666 1.38541,0.95313 1.8125,1.60938c0.28125,0.4375 0.42188,0.83854 0.42188,1.20313c0,0.21875 -0.05729,0.4375 -0.17187,0.65625c-0.10416,0.21875 -0.26562,0.39063 -0.48437,0.51563l-0.875,0.46875h-0.32812l-1.03125,-1.45312c-0.4375,-0.61459 -0.92709,-1.08334 -1.46875,-1.40625c-0.54166,-0.33334 -1.21875,-0.5 -2.03125,-0.5c-0.89584,0 -1.66666,0.27084 -2.3125,0.8125c-0.63541,0.54166 -0.95312,1.25 -0.95312,2.125c0,1 0.30209,1.82813 0.90625,2.48438c0.61459,0.64584 1.32291,1.20313 2.125,1.67188c1.125,0.65625 2.05209,1.28125 2.78125,1.875c0.72916,0.58334 1.28125,1.25 1.65625,2c0.375,0.73959 0.5625,1.6875 0.5625,2.84375c0,1.08334 -0.32812,2.11459 -0.98437,3.09375c-0.65625,0.97916 -1.55209,1.77604 -2.6875,2.39063c-1.13541,0.60416 -2.41666,0.90625 -3.84375,0.90625zM197.35272,226.21024c-0.78125,0 -1.34896,-0.21875 -1.70312,-0.65625c-0.35416,-0.4375 -0.53125,-0.99479 -0.53125,-1.67187c0,-0.78125 0.26041,-1.47916 0.78125,-2.09375c0.53125,-0.625 1.21875,-0.9375 2.0625,-0.9375c0.77084,0 1.33334,0.21875 1.6875,0.65625c0.36459,0.42709 0.54688,0.98438 0.54688,1.67188c0,0.80209 -0.26041,1.51041 -0.78125,2.125c-0.51041,0.60416 -1.19791,0.90625 -2.0625,0.90625zM215.02957,225.97586l0.1875,-0.75l2.75,-1.4375l16.46875,-28.84375h2.01563l6.10938,28.60938l2.79688,1.67188l-0.1875,0.75h-11.0625l0.14063,-0.75l4.25,-1.625l-1.71875,-8.73437h-11.0625l-4.98437,8.875l3.76563,1.48438l-0.14062,0.75zM227.02957,212.53836h9.28125l-2.42187,-12.21875zM254.54599,225.97586l-4.15625,-18.375l-3.95312,-1.40625v-0.28125l6.90625,-1.40625h0.14063l3.53125,16.29688h0.1875l3.5,-5.23437c1.09375,-1.64584 1.75521,-2.91666 1.98438,-3.8125c0.23958,-0.90625 0.35938,-1.65625 0.35938,-2.25c0,-0.5 -0.125,-0.89584 -0.375,-1.1875c-0.25,-0.30209 -0.5625,-0.55729 -0.9375,-0.76562l-0.60937,-0.375v-0.1875l0.75,-1.40625c0.25,-0.4375 0.45833,-0.72396 0.625,-0.85937c0.17708,-0.14584 0.4375,-0.21875 0.78125,-0.21875c0.48958,0 0.94271,0.20313 1.35938,0.60938c0.42708,0.40625 0.76563,0.89063 1.01563,1.45313c0.25,0.5625 0.375,1.10416 0.375,1.625c0,0.75 -0.25,1.67188 -0.75,2.76563c-0.5,1.08334 -1.36979,2.54166 -2.60937,4.375l-7.14062,10.64063zM276.05939,226.44461c-2.70833,0 -4.70833,-0.83854 -6,-2.51562c-1.29167,-1.6875 -1.9375,-3.86459 -1.9375,-6.53125c0,-1.46875 0.26563,-2.95312 0.79688,-4.45312c0.53125,-1.51041 1.29167,-2.90104 2.28125,-4.17187c1,-1.28125 2.18229,-2.3125 3.54688,-3.09375c1.375,-0.78125 2.88542,-1.17187 4.53125,-1.17187c2.70833,0 4.70833,0.84375 6,2.53125c1.29167,1.67709 1.9375,3.85416 1.9375,6.53125c0,1.39584 -0.26042,2.84896 -0.78125,4.35938c-0.51042,1.51041 -1.25521,2.91146 -2.23437,4.20313c-0.97917,1.29166 -2.15625,2.33334 -3.53125,3.125c-1.36458,0.79166 -2.90104,1.1875 -4.60937,1.1875zM276.57501,224.66336c1.33333,0 2.49479,-0.52084 3.48438,-1.5625c1,-1.04166 1.76563,-2.42187 2.29688,-4.14062c0.53125,-1.72916 0.79688,-3.61979 0.79688,-5.67187c0,-2.30209 -0.30729,-4.05209 -0.92187,-5.25c-0.60417,-1.19791 -1.72917,-1.79687 -3.375,-1.79687c-1.30208,0 -2.45833,0.47396 -3.46875,1.42188c-1.01042,0.94791 -1.79687,2.26563 -2.35937,3.95313c-0.5625,1.67709 -0.84375,3.65104 -0.84375,5.92188c0,2.29166 0.3125,4.05209 0.9375,5.28125c0.625,1.22916 1.77604,1.84375 3.45313,1.84375zM298.68237,198.67899c-0.70833,0 -1.32812,-0.26041 -1.85937,-0.78125c-0.53125,-0.53125 -0.79687,-1.15625 -0.79687,-1.875c0,-0.71875 0.26563,-1.33854 0.79688,-1.85937c0.53125,-0.53125 1.15104,-0.79687 1.85938,-0.79687c0.71875,0 1.33854,0.26563 1.85938,0.79688c0.53125,0.52084 0.79688,1.14063 0.79688,1.85938c0,0.71875 -0.26562,1.34375 -0.79687,1.875c-0.52083,0.52084 -1.14062,0.78125 -1.85937,0.78125zM295.36987,226.44461c-1.08333,0 -1.82812,-0.41666 -2.23437,-1.25c-0.40625,-0.84375 -0.48437,-1.96875 -0.23437,-3.375l2.46875,-14.04687l-4.0625,-1.57812v-0.28125l8.07813,-1.40625h0.14063l-2.84375,15.92188c-0.15625,0.92709 -0.1875,1.59375 -0.09375,2c0.09375,0.40625 0.35938,0.60938 0.79688,0.60938c0.52083,0 1.09375,-0.28646 1.71875,-0.85937c0.625,-0.58334 1.21875,-1.46354 1.78125,-2.64062l0.59375,0.28125c-0.89583,2.33334 -1.86458,4.02084 -2.90625,5.0625c-1.04167,1.04166 -2.10937,1.5625 -3.20312,1.5625zM309.46307,226.44461c-1.23958,0 -2.24479,-0.53646 -3.01562,-1.60937c-0.76042,-1.07291 -1.14062,-2.68229 -1.14062,-4.82812c0,-1.92709 0.30208,-3.80729 0.90625,-5.64062c0.61458,-1.84375 1.45833,-3.51041 2.53125,-5c1.07292,-1.48959 2.30729,-2.67187 3.70313,-3.54687c1.40625,-0.875 2.90104,-1.3125 4.48438,-1.3125c1.11458,0 2.1875,0.20313 3.21875,0.60938l1.90625,-10.85937l-4.0625,-1.59375v-0.28125l8.07813,-1.39062h0.14063l-5.17187,29.4375c-0.15625,0.92709 -0.1875,1.59375 -0.09375,2c0.09375,0.40625 0.35417,0.60938 0.78125,0.60938c0.53125,0 1.10938,-0.28646 1.73438,-0.85937c0.625,-0.58334 1.21354,-1.46354 1.76563,-2.64062l0.60938,0.28125c-0.89583,2.33334 -1.86979,4.02084 -2.92187,5.0625c-1.04167,1.04166 -2.10417,1.5625 -3.1875,1.5625c-1.09375,0 -1.84375,-0.41666 -2.25,-1.25c-0.39583,-0.84375 -0.46875,-1.96875 -0.21875,-3.375l0.23438,-1.20312h-0.1875c-2.61458,3.88541 -5.22917,5.82813 -7.84375,5.82813zM308.8537,218.17899c0,1.95834 0.21875,3.3125 0.65625,4.0625c0.4375,0.75 1.15104,1.125 2.14063,1.125c0.90625,0 1.91667,-0.45834 3.03125,-1.375c1.125,-0.91666 2.1875,-2.14062 3.1875,-3.67187l1.67188,-9.5625c-0.65625,-0.86459 -1.28646,-1.48437 -1.89062,-1.85937c-0.60417,-0.375 -1.29687,-0.5625 -2.07812,-0.5625c-1.23958,0 -2.36458,0.54688 -3.375,1.64063c-1.01042,1.08334 -1.82292,2.52084 -2.4375,4.3125c-0.60417,1.78125 -0.90625,3.74479 -0.90625,5.89063zM347.15759,226.44461c-0.80208,0 -1.57812,-0.10416 -2.32812,-0.3125c-0.75,-0.19791 -1.40104,-0.46875 -1.95312,-0.8125l-2.39062,1.125h-0.28125l5.60938,-32.1875l-3.59375,-1.59375v-0.28125l7.59375,-1.39062h0.14063l-3.35937,19.35938h0.23438c0.65625,-0.96875 1.36979,-1.89584 2.14063,-2.78125c0.78125,-0.88541 1.64063,-1.61459 2.57813,-2.1875c0.9375,-0.58334 1.96354,-0.875 3.07813,-0.875c1.23958,0 2.23958,0.53646 3,1.60938c0.77083,1.07291 1.15625,2.6875 1.15625,4.84375c0,1.92709 -0.30729,3.80729 -0.92187,5.64063c-0.60417,1.83334 -1.44271,3.5 -2.51562,5c-1.07292,1.48959 -2.30729,2.67188 -3.70312,3.54688c-1.39583,0.86459 -2.89062,1.29688 -4.48437,1.29688zM352.43884,207.60086c-0.875,0 -1.875,0.45834 -3,1.375c-1.11458,0.91666 -2.19792,2.16666 -3.25,3.75l-1.64062,9.42188c0.6875,0.90625 1.32292,1.54688 1.90625,1.92188c0.59375,0.36459 1.28125,0.54688 2.0625,0.54688c1.20833,0 2.32292,-0.52084 3.34375,-1.5625c1.03125,-1.04166 1.84896,-2.45312 2.45313,-4.23437c0.61458,-1.79166 0.92188,-3.80729 0.92188,-6.04687c0,-1.89584 -0.21354,-3.22916 -0.64062,-4c-0.41667,-0.78125 -1.13542,-1.17187 -2.15625,-1.17187zM370.25287,198.67899c-0.70833,0 -1.32812,-0.26041 -1.85937,-0.78125c-0.53125,-0.53125 -0.79687,-1.15625 -0.79687,-1.875c0,-0.71875 0.26563,-1.33854 0.79688,-1.85937c0.53125,-0.53125 1.15104,-0.79687 1.85938,-0.79687c0.71875,0 1.33854,0.26563 1.85938,0.79688c0.53125,0.52084 0.79688,1.14063 0.79688,1.85938c0,0.71875 -0.26562,1.34375 -0.79687,1.875c-0.52083,0.52084 -1.14062,0.78125 -1.85937,0.78125zM366.94037,226.44461c-1.08333,0 -1.82812,-0.41666 -2.23437,-1.25c-0.40625,-0.84375 -0.48437,-1.96875 -0.23437,-3.375l2.46875,-14.04687l-4.0625,-1.57812v-0.28125l8.07813,-1.40625h0.14063l-2.84375,15.92188c-0.15625,0.92709 -0.1875,1.59375 -0.09375,2c0.09375,0.40625 0.35938,0.60938 0.79688,0.60938c0.52083,0 1.09375,-0.28646 1.71875,-0.85937c0.625,-0.58334 1.21875,-1.46354 1.78125,-2.64062l0.59375,0.28125c-0.89583,2.33334 -1.86458,4.02084 -2.90625,5.0625c-1.04167,1.04166 -2.10937,1.5625 -3.20312,1.5625zM384.25232,218.83524c-0.92708,0 -1.78125,-0.14062 -2.5625,-0.42187c-0.71875,0.34375 -1.22917,0.77604 -1.53125,1.29688c-0.29167,0.51041 -0.4375,1.04166 -0.4375,1.59375c0,0.625 0.3125,1.10938 0.9375,1.45313c0.625,0.34375 1.42708,0.625 2.40625,0.84375c0.97917,0.21875 2.02604,0.44271 3.14063,0.67188c1.125,0.22916 2.17708,0.54166 3.15625,0.9375c0.97917,0.38541 1.78125,0.91146 2.40625,1.57813c0.625,0.66666 0.9375,1.5625 0.9375,2.6875c0,1.23959 -0.39062,2.44791 -1.17187,3.625c-0.78125,1.1875 -1.94271,2.16146 -3.48437,2.92188c-1.53125,0.77084 -3.47917,1.15625 -5.84375,1.15625c-2.77083,0 -4.81771,-0.45312 -6.14062,-1.35937c-1.32292,-0.90625 -1.98437,-2.04166 -1.98437,-3.40625c0,-0.98959 0.15104,-1.76562 0.45313,-2.32812c0.29167,-0.5625 0.78125,-1.1875 1.46875,-1.875l3.71875,-2.09375v-0.09375c-0.95833,-0.28125 -1.76042,-0.66666 -2.40625,-1.15625c-0.63542,-0.5 -0.95312,-1.23437 -0.95312,-2.20312c0,-0.65625 0.07813,-1.19791 0.23438,-1.625c0.15625,-0.4375 0.45313,-0.90625 0.89063,-1.40625l3.125,-1.59375v-0.14062c-0.83333,-0.48959 -1.49479,-1.16146 -1.98437,-2.01562c-0.47917,-0.86459 -0.71875,-1.83854 -0.71875,-2.92187c0,-1.3125 0.38021,-2.60937 1.14063,-3.89062c0.76042,-1.29166 1.80208,-2.375 3.125,-3.25c1.32292,-0.875 2.83854,-1.3125 4.54688,-1.3125c0.84375,0 1.71875,0.15625 2.625,0.46875h7.03125v2.0625h-4.14062l-0.1875,0.14063c0.64583,0.86459 0.96875,2.01563 0.96875,3.45313c0,0.86459 -0.20312,1.77084 -0.60937,2.71875c-0.39583,0.94791 -0.98437,1.84375 -1.76562,2.6875c-0.77083,0.84375 -1.69792,1.52084 -2.78125,2.03125c-1.07292,0.51041 -2.27604,0.76563 -3.60937,0.76563zM385.09607,217.02274c0.86458,0 1.63021,-0.32812 2.29688,-0.98437c0.67708,-0.65625 1.20833,-1.45834 1.59375,-2.40625c0.38542,-0.94791 0.57813,-1.88541 0.57813,-2.8125c0,-1.34375 -0.32812,-2.42709 -0.98437,-3.25c-0.64583,-0.82291 -1.49479,-1.23437 -2.54687,-1.23437c-0.9375,0 -1.75521,0.30209 -2.45312,0.90625c-0.69792,0.60416 -1.23437,1.375 -1.60937,2.3125c-0.375,0.9375 -0.5625,1.90104 -0.5625,2.89063c0,1.36459 0.33333,2.46875 1,3.3125c0.66667,0.84375 1.5625,1.26563 2.6875,1.26563zM377.58044,231.89774c0,1.15625 0.48958,2.08334 1.46875,2.78125c0.97917,0.69791 2.29167,1.04688 3.9375,1.04688c2.14583,0 3.73438,-0.48437 4.76563,-1.45312c1.03125,-0.95834 1.54688,-2.10416 1.54688,-3.4375c0,-0.875 -0.26042,-1.57291 -0.78125,-2.09375c-0.51042,-0.51041 -1.1875,-0.90625 -2.03125,-1.1875c-0.83333,-0.27084 -1.73958,-0.49479 -2.71875,-0.67187c-0.97917,-0.16666 -1.9375,-0.35937 -2.875,-0.57812c-1.42708,0.98959 -2.33854,1.94271 -2.73437,2.85938c-0.38542,0.92709 -0.57812,1.83854 -0.57812,2.73438zM404.87433,218.83524c-0.92708,0 -1.78125,-0.14062 -2.5625,-0.42187c-0.71875,0.34375 -1.22917,0.77604 -1.53125,1.29688c-0.29167,0.51041 -0.4375,1.04166 -0.4375,1.59375c0,0.625 0.3125,1.10938 0.9375,1.45313c0.625,0.34375 1.42708,0.625 2.40625,0.84375c0.97917,0.21875 2.02604,0.44271 3.14063,0.67188c1.125,0.22916 2.17708,0.54166 3.15625,0.9375c0.97917,0.38541 1.78125,0.91146 2.40625,1.57813c0.625,0.66666 0.9375,1.5625 0.9375,2.6875c0,1.23959 -0.39062,2.44791 -1.17187,3.625c-0.78125,1.1875 -1.94271,2.16146 -3.48437,2.92188c-1.53125,0.77084 -3.47917,1.15625 -5.84375,1.15625c-2.77083,0 -4.81771,-0.45312 -6.14062,-1.35937c-1.32292,-0.90625 -1.98437,-2.04166 -1.98437,-3.40625c0,-0.98959 0.15104,-1.76562 0.45313,-2.32812c0.29167,-0.5625 0.78125,-1.1875 1.46875,-1.875l3.71875,-2.09375v-0.09375c-0.95833,-0.28125 -1.76042,-0.66666 -2.40625,-1.15625c-0.63542,-0.5 -0.95312,-1.23437 -0.95312,-2.20312c0,-0.65625 0.07813,-1.19791 0.23438,-1.625c0.15625,-0.4375 0.45313,-0.90625 0.89063,-1.40625l3.125,-1.59375v-0.14062c-0.83333,-0.48959 -1.49479,-1.16146 -1.98437,-2.01562c-0.47917,-0.86459 -0.71875,-1.83854 -0.71875,-2.92187c0,-1.3125 0.38021,-2.60937 1.14063,-3.89062c0.76042,-1.29166 1.80208,-2.375 3.125,-3.25c1.32292,-0.875 2.83854,-1.3125 4.54688,-1.3125c0.84375,0 1.71875,0.15625 2.625,0.46875h7.03125v2.0625h-4.14062l-0.1875,0.14063c0.64583,0.86459 0.96875,2.01563 0.96875,3.45313c0,0.86459 -0.20312,1.77084 -0.60937,2.71875c-0.39583,0.94791 -0.98437,1.84375 -1.76562,2.6875c-0.77083,0.84375 -1.69792,1.52084 -2.78125,2.03125c-1.07292,0.51041 -2.27604,0.76563 -3.60937,0.76563zM405.71808,217.02274c0.86458,0 1.63021,-0.32812 2.29688,-0.98437c0.67708,-0.65625 1.20833,-1.45834 1.59375,-2.40625c0.38542,-0.94791 0.57813,-1.88541 0.57813,-2.8125c0,-1.34375 -0.32812,-2.42709 -0.98437,-3.25c-0.64583,-0.82291 -1.49479,-1.23437 -2.54687,-1.23437c-0.9375,0 -1.75521,0.30209 -2.45312,0.90625c-0.69792,0.60416 -1.23437,1.375 -1.60937,2.3125c-0.375,0.9375 -0.5625,1.90104 -0.5625,2.89063c0,1.36459 0.33333,2.46875 1,3.3125c0.66667,0.84375 1.5625,1.26563 2.6875,1.26563zM398.20245,231.89774c0,1.15625 0.48958,2.08334 1.46875,2.78125c0.97917,0.69791 2.29167,1.04688 3.9375,1.04688c2.14583,0 3.73438,-0.48437 4.76563,-1.45312c1.03125,-0.95834 1.54688,-2.10416 1.54688,-3.4375c0,-0.875 -0.26042,-1.57291 -0.78125,-2.09375c-0.51042,-0.51041 -1.1875,-0.90625 -2.03125,-1.1875c-0.83333,-0.27084 -1.73958,-0.49479 -2.71875,-0.67187c-0.97917,-0.16666 -1.9375,-0.35937 -2.875,-0.57812c-1.42708,0.98959 -2.33854,1.94271 -2.73437,2.85938c-0.38542,0.92709 -0.57812,1.83854 -0.57812,2.73438zM425.07446,226.44461c-2.39583,0 -4.15625,-0.66146 -5.28125,-1.98437c-1.11458,-1.32291 -1.67187,-3.11979 -1.67187,-5.39062c0,-1.83334 0.30208,-3.61459 0.90625,-5.34375c0.61458,-1.72916 1.45833,-3.28125 2.53125,-4.65625c1.07292,-1.38541 2.31771,-2.48959 3.73438,-3.3125c1.41667,-0.83334 2.94792,-1.25 4.59375,-1.25c1.55208,0 2.72396,0.35938 3.51563,1.07813c0.79167,0.71875 1.1875,1.55729 1.1875,2.51563c0,1.0625 -0.375,2.03646 -1.125,2.92188c-0.73958,0.88541 -2.03646,1.69271 -3.89062,2.42188c-1.84375,0.72916 -4.44792,1.375 -7.8125,1.9375c-0.0625,0.625 -0.09375,1.28125 -0.09375,1.96875c0,1.89584 0.40625,3.40625 1.21875,4.53125c0.8125,1.11459 2.08854,1.67188 3.82813,1.67188c1.02083,0 2.02604,-0.28125 3.01563,-0.84375c1,-0.5625 2.03125,-1.47916 3.09375,-2.75h0.09375l0.46875,0.375c-1.0625,1.83334 -2.33333,3.3125 -3.8125,4.4375c-1.46875,1.11459 -2.96875,1.67188 -4.5,1.67188zM428.62134,206.14774c-1.67708,0 -3.09896,0.69271 -4.26562,2.07813c-1.16667,1.38541 -1.95312,3.21354 -2.35937,5.48438c2.33333,-0.40625 4.15104,-0.84375 5.45313,-1.3125c1.3125,-0.46875 2.22917,-1.02084 2.75,-1.65625c0.53125,-0.63541 0.79688,-1.4375 0.79688,-2.40625c0,-0.61459 -0.20312,-1.13021 -0.60937,-1.54687c-0.39583,-0.42709 -0.98437,-0.64062 -1.76562,-0.64062zM438.46191,225.97586l3.21875,-18.15625l-3.625,-1.625v-0.28125l6.57813,-1.40625h0.14063v5.75h0.17188c1,-1.83334 1.84896,-3.14584 2.54688,-3.9375c0.69792,-0.80209 1.31771,-1.30209 1.85938,-1.5c0.55208,-0.20834 1.04688,-0.3125 1.48438,-0.3125c0.55208,0 1.0625,0.18229 1.53125,0.54688c0.46875,0.35416 0.70313,0.76563 0.70313,1.23438c0,0.15625 -0.04687,0.32813 -0.14062,0.51563l-1.17187,2.375h-0.28125l-0.5,-0.375c-0.25,-0.1875 -0.52604,-0.31771 -0.82812,-0.39062c-0.29167,-0.08334 -0.57812,-0.125 -0.85937,-0.125c-0.5625,0 -1.06771,0.11979 -1.51562,0.35938c-0.44792,0.22916 -0.94792,0.70834 -1.5,1.4375c-0.54167,0.72916 -1.22917,1.82813 -2.0625,3.29688l-2.20312,12.59375zM470.14685,226.44461c-1.23958,0 -2.24479,-0.53646 -3.01562,-1.60937c-0.76042,-1.07291 -1.14062,-2.68229 -1.14062,-4.82812c0,-1.92709 0.30208,-3.80729 0.90625,-5.64062c0.61458,-1.84375 1.45833,-3.51041 2.53125,-5c1.07292,-1.48959 2.30729,-2.67187 3.70313,-3.54687c1.40625,-0.875 2.90104,-1.3125 4.48438,-1.3125c1.11458,0 2.1875,0.20313 3.21875,0.60938l1.90625,-10.85937l-4.0625,-1.59375v-0.28125l8.07813,-1.39062h0.14063l-5.17187,29.4375c-0.15625,0.92709 -0.1875,1.59375 -0.09375,2c0.09375,0.40625 0.35417,0.60938 0.78125,0.60938c0.53125,0 1.10938,-0.28646 1.73438,-0.85937c0.625,-0.58334 1.21354,-1.46354 1.76563,-2.64062l0.60938,0.28125c-0.89583,2.33334 -1.86979,4.02084 -2.92187,5.0625c-1.04167,1.04166 -2.10417,1.5625 -3.1875,1.5625c-1.09375,0 -1.84375,-0.41666 -2.25,-1.25c-0.39583,-0.84375 -0.46875,-1.96875 -0.21875,-3.375l0.23438,-1.20312h-0.1875c-2.61458,3.88541 -5.22917,5.82813 -7.84375,5.82813zM469.53747,218.17899c0,1.95834 0.21875,3.3125 0.65625,4.0625c0.4375,0.75 1.15104,1.125 2.14063,1.125c0.90625,0 1.91667,-0.45834 3.03125,-1.375c1.125,-0.91666 2.1875,-2.14062 3.1875,-3.67187l1.67188,-9.5625c-0.65625,-0.86459 -1.28646,-1.48437 -1.89062,-1.85937c-0.60417,-0.375 -1.29687,-0.5625 -2.07812,-0.5625c-1.23958,0 -2.36458,0.54688 -3.375,1.64063c-1.01042,1.08334 -1.82292,2.52084 -2.4375,4.3125c-0.60417,1.78125 -0.90625,3.74479 -0.90625,5.89063zM497.95599,226.44461c-2.70833,0 -4.70833,-0.83854 -6,-2.51562c-1.29167,-1.6875 -1.9375,-3.86459 -1.9375,-6.53125c0,-1.46875 0.26563,-2.95312 0.79688,-4.45312c0.53125,-1.51041 1.29167,-2.90104 2.28125,-4.17187c1,-1.28125 2.18229,-2.3125 3.54688,-3.09375c1.375,-0.78125 2.88542,-1.17187 4.53125,-1.17187c2.70833,0 4.70833,0.84375 6,2.53125c1.29167,1.67709 1.9375,3.85416 1.9375,6.53125c0,1.39584 -0.26042,2.84896 -0.78125,4.35938c-0.51042,1.51041 -1.25521,2.91146 -2.23437,4.20313c-0.97917,1.29166 -2.15625,2.33334 -3.53125,3.125c-1.36458,0.79166 -2.90104,1.1875 -4.60937,1.1875zM498.47162,224.66336c1.33333,0 2.49479,-0.52084 3.48438,-1.5625c1,-1.04166 1.76563,-2.42187 2.29688,-4.14062c0.53125,-1.72916 0.79688,-3.61979 0.79688,-5.67187c0,-2.30209 -0.30729,-4.05209 -0.92187,-5.25c-0.60417,-1.19791 -1.72917,-1.79687 -3.375,-1.79687c-1.30208,0 -2.45833,0.47396 -3.46875,1.42188c-1.01042,0.94791 -1.79687,2.26563 -2.35937,3.95313c-0.5625,1.67709 -0.84375,3.65104 -0.84375,5.92188c0,2.29166 0.3125,4.05209 0.9375,5.28125c0.625,1.22916 1.77604,1.84375 3.45313,1.84375zM517.08105,226.44461c-1.02084,0 -1.79687,-0.32812 -2.32812,-0.98437c-0.53125,-0.65625 -0.79687,-1.57291 -0.79687,-2.75c0,-0.25 0.01563,-0.53125 0.04688,-0.84375c0.03125,-0.3125 0.07813,-0.61979 0.14063,-0.92187l2.46875,-13.90625h-3.45312v-0.28125l3.96875,-1.78125l4.01563,-5.125h0.28125l-0.89062,5.125h5.82813v2.0625h-6.20312l-2.09375,11.84375c-0.0625,0.40625 -0.10937,0.77604 -0.14062,1.10938c-0.03125,0.32291 -0.04687,0.60938 -0.04687,0.85938c0,0.73959 0.125,1.26563 0.375,1.57813c0.25,0.3125 0.57813,0.46875 0.98438,0.46875c0.70834,0 1.47396,-0.40104 2.29688,-1.20312c0.82291,-0.8125 1.57813,-1.98437 2.26563,-3.51562l0.60938,0.28125c-1.03125,2.95834 -2.17709,5.03125 -3.4375,6.21875c-1.25,1.17709 -2.54687,1.76563 -3.89062,1.76563zM532.19983,226.44461c-1.58334,0 -2.875,-0.22396 -3.875,-0.67187c-0.98959,-0.45834 -1.70312,-1.02604 -2.14062,-1.70312c-0.1875,-0.28125 -0.3125,-0.51562 -0.375,-0.70312c-0.0625,-0.1875 -0.09375,-0.39062 -0.09375,-0.60937c0,-0.1875 0.03125,-0.38021 0.09375,-0.57812c0.0625,-0.20834 0.21875,-0.375 0.46875,-0.5l1.01563,-0.5625h0.32813l0.79688,1.35938c0.46875,0.78125 1.08854,1.36459 1.85938,1.75c0.78125,0.38541 1.5625,0.57813 2.34375,0.57813c1.17709,0 2.14584,-0.30729 2.90625,-0.92187c0.77084,-0.625 1.15625,-1.53125 1.15625,-2.71875c0,-1.20834 -0.40104,-2.13541 -1.20312,-2.78125c-0.79166,-0.65625 -1.68229,-1.28125 -2.67187,-1.875c-1.1875,-0.71875 -2.07812,-1.36979 -2.67187,-1.95312c-0.58334,-0.59375 -0.98437,-1.20312 -1.20312,-1.82812c-0.21875,-0.625 -0.32812,-1.36979 -0.32812,-2.23437c0,-0.90625 0.33854,-1.81771 1.01563,-2.73437c0.6875,-0.91666 1.58854,-1.6875 2.70313,-2.3125c1.125,-0.625 2.3125,-0.9375 3.5625,-0.9375c1.36459,0 2.4375,0.21354 3.21875,0.64063c0.78125,0.41666 1.38541,0.95313 1.8125,1.60938c0.28125,0.4375 0.42188,0.83854 0.42188,1.20313c0,0.21875 -0.05729,0.4375 -0.17187,0.65625c-0.10416,0.21875 -0.26562,0.39063 -0.48437,0.51563l-0.875,0.46875h-0.32812l-1.03125,-1.45312c-0.4375,-0.61459 -0.92709,-1.08334 -1.46875,-1.40625c-0.54166,-0.33334 -1.21875,-0.5 -2.03125,-0.5c-0.89584,0 -1.66666,0.27084 -2.3125,0.8125c-0.63541,0.54166 -0.95312,1.25 -0.95312,2.125c0,1 0.30209,1.82813 0.90625,2.48438c0.61459,0.64584 1.32291,1.20313 2.125,1.67188c1.125,0.65625 2.05209,1.28125 2.78125,1.875c0.72916,0.58334 1.28125,1.25 1.65625,2c0.375,0.73959 0.5625,1.6875 0.5625,2.84375c0,1.08334 -0.32812,2.11459 -0.98437,3.09375c-0.65625,0.97916 -1.55209,1.77604 -2.6875,2.39063c-1.13541,0.60416 -2.41666,0.90625 -3.84375,0.90625zM545.96631,226.21024c-0.78125,0 -1.34896,-0.21875 -1.70312,-0.65625c-0.35416,-0.4375 -0.53125,-0.99479 -0.53125,-1.67187c0,-0.78125 0.26041,-1.47916 0.78125,-2.09375c0.53125,-0.625 1.21875,-0.9375 2.0625,-0.9375c0.77084,0 1.33334,0.21875 1.6875,0.65625c0.36459,0.42709 0.54688,0.98438 0.54688,1.67188c0,0.80209 -0.26041,1.51041 -0.78125,2.125c-0.51041,0.60416 -1.19791,0.90625 -2.0625,0.90625z" fill="#ffffff" fill-rule="nonzero"/></g></g></g></svg>