<svg version="1.1" xmlns="http://www.w3.org/2000/svg" xmlns:xlink="http://www.w3.org/1999/xlink" width="15.34596" height="42.51742" viewBox="0,0,15.34596,42.51742"><g transform="translate(-233.67779,-162.83258)"><g data-paper-data="{&quot;isPaintingLayer&quot;:true}" fill="#000000" fill-rule="nonzero" stroke="none" stroke-width="0.5" stroke-linecap="butt" stroke-linejoin="miter" stroke-miterlimit="10" stroke-dasharray="" stroke-dashoffset="0" style="mix-blend-mode: normal"><path d="M238.46797,179.3582c0.13761,0 0.27209,0.01106 0.40251,0.03171c-0.55552,-1.71678 -1.36982,-3.06233 -2.43298,-4.77689l-0.48475,-0.86963c0,0 -0.60706,-1.09269 0.48564,-1.69975c1.09269,-0.60706 1.69975,0.48565 1.69975,0.48565l0.42434,0.76673c0.5321,0.85896 1.00595,1.64829 1.42328,2.4338c0.15808,-3.42174 1.06023,-6.66575 2.26275,-10.11577l0.67114,-1.92548c0,0 0.41142,-1.18035 1.59177,-0.76893v0.00001c1.18035,0.41142 0.76893,1.59177 0.76893,1.59177l-0.67114,1.92548c-1.1381,3.26517 -2.02122,6.32108 -2.1423,9.56698c0.68316,-0.44257 1.3921,-0.60124 1.77483,-0.19485c0.05988,-0.10008 0.11937,-0.20093 0.17853,-0.30253l1.34451,-1.10835c0,0 1.01092,-0.73521 1.74613,0.27571c0.73521,1.01092 -0.27571,1.74613 -0.27571,1.74613l-0.65549,0.34619c-0.56056,0.9594 -1.15219,1.85624 -1.81473,2.69423c1.57419,-0.2784 3.18358,0.04675 3.42726,1.14331c0.17209,0.77441 -0.04054,2.08154 -0.68667,2.71671c0.36021,0.42235 0.70702,0.89056 1.04589,1.41268l0.39167,0.96432c0,0 0.4389,1.17041 -0.73151,1.60932c-1.17041,0.4389 -1.60932,-0.73151 -1.60932,-0.73151l-0.07584,-0.24175c-0.3424,1.09552 -0.92153,2.78547 -1.87755,3.0797c0.78843,4.23862 1.44822,8.48369 1.89937,12.82128l0.00172,1.86552c0,0 0,1.25 -1.25,1.25c-1.25,0 -1.25,-1.25 -1.25,-1.25l0.00172,-1.73448c-0.62813,-5.88987 -1.63171,-11.60438 -2.82037,-17.37187c-0.18413,0.2439 -0.36607,0.49063 -0.57364,0.72914c-0.54094,0.62156 -1.19005,0.66367 -1.66841,0.30777c-0.72737,0.92789 -1.5193,1.81347 -2.42556,2.7201l-0.72607,0.72485c0,0 -0.88462,0.88313 -1.76776,-0.00147l-0.00001,-0.00001c-0.88312,-0.88463 0.00149,-1.76776 0.00149,-1.76776l0.72607,-0.72485c1.31378,-1.30865 2.347,-2.54653 3.30442,-3.97435c-2.36076,-0.30422 -4.8539,-1.62682 -1.74914,-3.38981c0.73913,-0.4197 1.20347,-0.37003 1.57872,-0.15825c0.15055,-0.06437 0.32895,-0.1008 0.5365,-0.1008zM244.0421,185.63822c-0.00509,-0.11038 -0.0864,-0.25692 -0.2145,-0.43018c0.05472,0.26855 0.10903,0.53701 0.16292,0.8054c0.03716,-0.13245 0.05697,-0.25828 0.05158,-0.37522z"/></g></g></svg>