<svg version="1.1" xmlns="http://www.w3.org/2000/svg" xmlns:xlink="http://www.w3.org/1999/xlink" width="17.60743" height="48.72502" viewBox="0,0,17.60743,48.72502"><g transform="translate(-232.57572,-158.03313)"><g data-paper-data="{&quot;isPaintingLayer&quot;:true}" fill="#000000" fill-rule="nonzero" stroke="none" stroke-width="0.5" stroke-linecap="butt" stroke-linejoin="miter" stroke-miterlimit="10" stroke-dasharray="" stroke-dashoffset="0" style="mix-blend-mode: normal"><path d="M233.433,171.17368c0.78087,-0.97609 1.75695,-0.19522 1.75695,-0.19522l0.38184,0.30967c1.99391,1.37672 3.33868,2.8008 4.8264,4.72029c0,0 0.76431,0.98911 -0.2248,1.75342c-0.98911,0.76431 -1.75342,-0.2248 -1.75342,-0.2248c-1.33297,-1.73065 -2.47087,-2.96159 -4.26451,-4.1888l-0.52725,-0.4176c0,0 -0.97609,-0.78087 -0.19522,-1.75695z"/><path d="M243.5,177.51471c-0.42025,0 -0.79206,-0.20738 -1.01867,-0.52539c-0.09311,-0.13066 -0.16171,-0.28 -0.19909,-0.44131c-0.88856,-2.5895 1.57888,-2.14875 2.52319,-1.16445c0.27023,-0.34672 0.54046,-0.69344 0.8107,-1.04017l1.30356,-1.01599c0,0 0.99078,-0.76214 1.75292,0.22864l-0.00001,0.00001c0.76214,0.99078 -0.22864,1.75292 -0.22864,1.75292l-1.06007,0.80219c-0.2674,0.35336 -0.5348,0.70672 -0.80219,1.06007c0,0 -0.76214,0.99078 -1.75292,0.22864c-0.15339,-0.11799 -0.26476,-0.24146 -0.34346,-0.36589c-0.22878,0.29263 -0.58509,0.48073 -0.98533,0.48073z"/><path d="M249.10224,189.49536c-1.17718,0.42042 -1.5976,-0.75676 -1.5976,-0.75676l-0.43925,-1.23215c-0.40873,-0.9428 -0.7497,-1.92255 -0.96946,-2.92636c0,0 -0.26191,-1.22225 0.96034,-1.48416c1.22225,-0.26191 1.48416,0.96034 1.48416,0.96034c0.18158,0.8702 0.4894,1.71509 0.84872,2.52818l0.46984,1.31331c0,0 0.42042,1.17718 -0.75676,1.5976z"/><path d="M233.07066,190.92934c-0.88388,-0.88388 0,-1.76777 0,-1.76777l1.10362,-1.10344c0.54975,-0.51927 1.0995,-1.03854 1.64925,-1.5578c0,0 0.90877,-0.85828 1.76705,0.05049c0.85828,0.90877 -0.05049,1.76705 -0.05049,1.76705c-0.54116,0.51103 -1.08232,1.02207 -1.62347,1.5331l-1.0782,1.07838c0,0 -0.88388,0.88388 -1.76777,0z"/><path d="M245.50162,158.11628c1.18372,0.40162 0.7821,1.58534 0.7821,1.58534l-0.45273,1.33213c-0.8453,1.99412 -1.36729,3.2213 -0.72909,5.32284c0,0 0.3434,1.2019 -0.8585,1.54531c-1.2019,0.3434 -1.54531,-0.8585 -1.54531,-0.8585c-0.72269,-2.65052 -0.23227,-4.39126 0.79399,-6.89254l0.42419,-1.25248c0,0 0.40162,-1.18372 1.58534,-0.7821z"/><path d="M245.74515,206.72573c-1.22573,0.24515 -1.47087,-0.98058 -1.47087,-0.98058l-0.22009,-1.1429c-0.20975,-2.57346 -0.17265,-5.00989 -0.00142,-7.58539c0,0 0.08315,-1.24723 1.33038,-1.16408c1.24723,0.08315 1.16408,1.33038 1.16408,1.33038c-0.16405,2.45394 -0.20408,4.76301 -0.00142,7.21461l0.17991,0.8571c0,0 0.24515,1.22573 -0.98058,1.47087z"/><path d="M232.72591,179.04589c0.47815,-0.83676 2.90808,-1.42538 3.46733,-0.44669c0.36843,0.21744 0.61558,0.61849 0.61558,1.07727c0,0.69036 -0.55964,1.25 -1.25,1.25c-0.25715,0 -0.49616,-0.07765 -0.69487,-0.21078c-1.36367,0.09874 -2.75395,-0.59197 -2.13804,-1.6698z"/><path d="M250.16176,180.02941c-0.10794,0.64407 -1.71651,2.3711 -2.40821,1.16064c-0.55763,-0.1256 -0.97415,-0.62389 -0.97415,-1.21946c0,-0.69036 0.55964,-1.25 1.25,-1.25c0.07383,0 0.14617,0.0064 0.21648,0.01868c1.00605,-0.23385 2.10491,0.16215 1.91587,1.29015z"/><path d="M235.90465,186.19522c-2.98581,1.72785 -2.06208,-3.68269 -0.21149,-2.59217c0.68266,0.00893 1.23331,0.56511 1.23331,1.24989c0,0.45642 -0.24462,0.85571 -0.60991,1.0739c-0.11105,0.08572 -0.24557,0.17212 -0.4119,0.26837z"/><path d="M242.14706,187.77941c-0.70525,-0.403 0.16361,-2.80631 0.86716,-2.75779c0.16462,-0.07981 0.34939,-0.12456 0.54461,-0.12456c0.69036,0 1.25,0.55964 1.25,1.25c0,0.30871 -0.11191,0.59129 -0.29738,0.80937c0.00214,1.03849 -0.81211,1.71 -2.36439,0.82299z"/></g></g></svg>