<svg version="1.1" xmlns="http://www.w3.org/2000/svg" xmlns:xlink="http://www.w3.org/1999/xlink" width="19.23077" height="22.23077" viewBox="0,0,19.23077,22.23077"><g transform="translate(-230.38461,-168.88461)"><g data-paper-data="{&quot;isPaintingLayer&quot;:true}" fill-rule="nonzero" stroke-linecap="butt" stroke-linejoin="miter" stroke-miterlimit="10" stroke-dasharray="" stroke-dashoffset="0" style="mix-blend-mode: normal"><path d="M230.38462,191.11539v-22.23077h19.23077v22.23077z" fill="none" stroke="none" stroke-width="0"/><path d="M233.7639,187.69445c0,-3.28917 0,-13.45264 0,-15.34722c0,-0.59424 0.512,-1.12501 0.87499,-1.125c0.32158,0 0.98403,0 1.52778,0c0.46748,0 0.84722,0.42188 0.84722,0.91667c0,1.79364 0,12.57611 0,15.72222c0,0.54523 -0.29229,0.86111 -0.68056,0.86111c-0.57684,0 -1.36552,0 -1.72222,0c-0.35438,0 -0.84722,-0.38098 -0.84722,-1.02778z" fill="#000000" stroke="#000000" stroke-width="2"/><path d="M242.98612,187.75001c0,-3.28917 0,-13.45264 0,-15.34722c0,-0.59425 0.51199,-1.12501 0.87499,-1.12501c0.32158,0 0.98403,0 1.52778,0c0.46748,0 0.84723,0.42189 0.84723,0.91667c0,1.79364 0,12.57611 0,15.72222c0,0.54523 -0.2923,0.86111 -0.68056,0.86111c-0.57684,0 -1.36551,0 -1.72222,0c-0.35438,0 -0.84722,-0.38097 -0.84722,-1.02777z" fill="#000000" stroke="#000000" stroke-width="2"/></g></g></svg>